<svg xmlns="http://www.w3.org/2000/svg" width="192" height="192" viewBox="0 0 211.66666 211.66667"><g font-weight="400"><g aria-label="3P" style="line-height:1.25;-inkscape-font-specification:'Montserrat Light, Light';font-variant-ligatures:normal;font-variant-caps:normal;font-variant-numeric:normal;font-feature-settings:normal;text-align:start" font-size="163.07678223" font-family="Montserrat ExtraLight" letter-spacing="0" word-spacing=".01729311" stroke-width=".57643688"><path d="M47.422785 61.02854434q19.09119524 0 28.95497988 8.85948124 10.02287716 8.85948124 10.02287716 24.0710453 0 14.87723743-9.86378463 24.07103504-9.70469016 9.02664455-27.68223282 9.02664455-12.2501833 0-22.75034098-4.3461641-10.5001567-4.51331714-15.90932904-11.86835933l2.86367919-4.01183746q5.09098533 6.68639919 14.47749042 10.86539997 9.54559665 4.17900077 21.15940789 4.17900077 15.75023553 0 24.02308707-7.5222055 8.43194406-7.52219524 8.43194406-20.39351395 0-13.20564532-8.59103757-20.5606875-8.59103756-7.3550422-25.77311367-7.3550422h-6.20463792v-4.01183746l34.68233728-47.47344247H13.8541003V9.3761011h68.41011645v4.01184054zM154.45031454 9.3761011q20.84122283 0 32.4550282 10.3639254 11.77291158 10.19675698 11.77291158 28.41719914 0 18.38759522-11.77291157 28.75152576-11.61380538 10.19675697-32.4550282 10.19675697h-33.25050062v39.2825991h-5.40917137V9.3761011zm.3181831 72.54744713q18.61392157 0 28.6367919-8.69231793 10.02288009-8.85948123 10.02288009-25.07400466 0-16.04736011-10.0228801-24.73968829-10.02287032-8.8594761-28.63679188-8.8594761h-33.56868372v67.36548698z" style="-inkscape-font-specification:'Montserrat ExtraLight, ';font-variant-ligatures:normal;font-variant-caps:normal;font-variant-numeric:normal;font-feature-settings:normal;text-align:start"/></g><g aria-label="web" style="line-height:1.25;-inkscape-font-specification:'Montserrat Light, '" font-size="77.10250092" font-family="Montserrat ExtraBold" letter-spacing="7.9375" word-spacing="0" stroke-width=".48189068"><path d="M83.691192 156.788112l-14.880783 41.78956h-14.18686l-7.864455-22.74524-8.172865 22.74524H24.399368l-14.8807823-41.78956H23.397036l8.558377 25.28963 8.866788-25.28963h12.490605l8.63548 25.52093 8.866788-25.52093zM137.53962 177.759992q0 .15421-.23131 3.62382h-30.37838q.92523 3.23831 3.54671 5.01167 2.69859 1.69625 6.70792 1.69625 3.007 0 5.16587-.84813 2.23597-.84812 4.47194-2.77569l7.71025 8.01866q-6.0911 6.78502-17.81068 6.78502-7.32473 0-12.87611-2.77569-5.551383-2.77569-8.635483-7.71025-3.006997-4.93456-3.006997-11.17986 0-6.1682 2.929895-11.02566 3.006997-4.93456 8.249965-7.71025 5.24297-2.77569 11.79668-2.77569 6.24531 0 11.33407 2.62149 5.08877 2.54438 8.01866 7.47894 3.007 4.85746 3.007 11.56537zm-22.28262-11.25696q-3.39251 0-5.70559 1.92756-2.23597 1.92756-2.85279 5.24297h17.11675q-.61682-3.31541-2.92989-5.24297-2.23597-1.92756-5.62848-1.92756zM178.59868 156.094192q5.70558 0 10.33173 2.62149 4.70325 2.62148 7.40184 7.55604 2.77569 4.85746 2.77569 11.33407 0 6.47661-2.77569 11.41117-2.69859 4.93456-7.40184 7.63315-4.62615 2.62148-10.33173 2.62148-8.24997 0-12.3364-4.85745v4.16353h-13.95556v-57.21006h14.64948v19.04432q4.24064-4.31774 11.64248-4.31774zm-3.0841 31.53493q3.85512 0 6.3224-2.62149 2.46728-2.69859 2.46728-7.40184 0-4.62615-2.46728-7.24764-2.46728-2.62148-6.3224-2.62148-3.85513 0-6.32241 2.62148-2.46728 2.62149-2.46728 7.24764 0 4.70325 2.46728 7.40184 2.46728 2.62149 6.32241 2.62149z" style="-inkscape-font-specification:'Montserrat ExtraBold, '"/></g></g></svg>
